<svg xmlns="http://www.w3.org/2000/svg" xmlns:xlink="http://www.w3.org/1999/xlink" viewBox="0 0 60 42" preserveAspectRatio="xMidYMid" style="display: block; shape-rendering: auto; background: transparent;" width="50px" height="50px"><style type="text/css">
  .ld-text text {
    text-anchor: middle;
    dominant-baseline: middle;
    font-size: 80px;
    opacity: 0;
    user-select: none;
    pointer-events: none;
  }
</style>
<g style="transform-origin:30px 21px;transform:scale(1)" class="ld-text">
<g transform="translate(30,21)">
  <g transform="scale(1.0000) translate(0,0)"><g class="path" style="opacity: 1; transform-origin: -14.08px 3.48px; transform: matrix3d(1, 0, 0, 0, 0, 1, 0, 0, 0, 0, 1, 0, 0, 0, 0, 1); animation: 1s linear -0.44s infinite normal forwards running animate-w8dad2t7evh; transform-box: view-box;"><path d="M6.56 9.28Q4.88 7.60 4.88 5.20Q4.88 2.80 6.56 1.08Q8.24-0.64 10.64-0.64Q13.04-0.64 14.76 1.08Q16.48 2.80 16.48 5.20Q16.48 7.60 14.76 9.28Q13.04 10.96 10.64 10.96Q8.24 10.96 6.56 9.28" style="fill: rgb(253, 92, 99);" transform="translate(-24.760,-5.160)"></path></g><g class="path" style="opacity: 1; transform-origin: 4.88px 3.48px; transform: matrix3d(1, 0, 0, 0, 0, 1, 0, 0, 0, 0, 1, 0, 0, 0, 0, 1); animation: 1s linear -0.22s infinite normal forwards running animate-w8dad2t7evh; transform-box: view-box;"><path d="M25.52 9.28Q23.84 7.60 23.84 5.20Q23.84 2.80 25.52 1.08Q27.20-0.64 29.60-0.64Q32-0.64 33.72 1.08Q35.44 2.80 35.44 5.20Q35.44 7.60 33.72 9.28Q32 10.96 29.60 10.96Q27.20 10.96 25.52 9.28" style="fill: rgb(253, 92, 99);" transform="translate(-24.760,-5.160)"></path></g><g class="path" style="opacity: 1; transform-origin: 23.84px 3.48px; transform: matrix3d(1, 0, 0, 0, 0, 1, 0, 0, 0, 0, 1, 0, 0, 0, 0, 1); animation: 1s linear 0s infinite normal forwards running animate-w8dad2t7evh; transform-box: view-box;"><path d="M44.48 9.28Q42.80 7.60 42.80 5.20Q42.80 2.80 44.48 1.08Q46.16-0.64 48.56-0.64Q50.96-0.64 52.68 1.08Q54.40 2.80 54.40 5.20Q54.40 7.60 52.68 9.28Q50.96 10.96 48.56 10.96Q46.16 10.96 44.48 9.28" style="fill: rgb(253, 92, 99);" transform="translate(-24.760,-5.160)"></path></g></g><text dy="0.35em" fill="#fd5c63" font-family="Sail" font-size="80">...</text>
</g>
</g><style type="text/css">@keyframes animate-w8dad2t7evh { 0.00% {transform: translate(0.00px,0.00px) rotate(0.00deg) scale(1.00, 1.00) skew(0deg, 0.00deg) ;opacity: 1.00;}2.00% {animation-timing-function: cubic-bezier(0.20,0.39,0.50,0.97);transform: translate(0.00px,-1.08px) rotate(0.00deg) ;}36.00% {animation-timing-function: cubic-bezier(0.50,0.03,0.80,0.61);transform: translate(0.00px,-10.00px) rotate(0.00deg) ;}72.00% {transform: translate(0.00px,-0.12px) rotate(0.00deg) ;}74.00% {animation-timing-function: cubic-bezier(0.24,0.43,0.48,0.91);transform: translate(0.00px,0.00px) rotate(0.00deg) scale(1.00, 0.95) ;}86.00% {animation-timing-function: cubic-bezier(0.53,0.08,0.77,0.57);transform: translate(0.00px,0.00px) rotate(0.00deg) scale(1.00, 0.80) ;}100.00% {animation-timing-function: cubic-bezier(0.53,0.08,0.77,0.57);transform: translate(0.00px,0.00px) rotate(0.00deg) scale(1.00, 1.00) ;} }</style><!-- [ldio] generated by https://loading.io --></svg>